# xmcd
#
# Track frame offsets:
#	150
#	15091
#	24498
#	37169
#	48539
#	66519
#	80011
#	90469
#	105713
#
# Disc length: 1568 seconds
#
# Revision: 0
# Processed by: cddbd v1.5PL3 Copyright (c) Steve Scherf et al.
# Submitted via: dBpowerAMP V4.0
#
DISCID=6d061e09
DTITLE=George Strait - Does Fort Worth Ever Cross Your Mind
DYEAR=1900
DGENRE=
TTITLE0=Does Fort Worth Ever Cross Your Mind
TTITLE1=Any Old Time
TTITLE2=I Need Someone Like Me
TTITLE3=Honky Tonk Saturday Night
TTITLE4=You're Dancin' This Dance All Wrong
TTITLE5=I Should Have Watched That First Step
TTITLE6=Love Comes From The Others Side Of Town
TTITLE7=The Cowboy Rides Away
TTITLE8=What Did You Expect Me To Do
EXTD=
EXTT0=
EXTT1=
EXTT2=
EXTT3=
EXTT4=
EXTT5=
EXTT6=
EXTT7=
EXTT8=
PLAYORDER=
